<?xml version="1.0" encoding="UTF-8"?>
<svg width="800" height="800" viewBox="0 0 800 800" fill="none" xmlns="http://www.w3.org/2000/svg">
  <!-- Gradients -->
  <defs>
    <linearGradient id="nodeGradient" x1="0" y1="0" x2="1" y2="1">
      <stop offset="0%" stop-color="#0B1C48" stop-opacity="0.2"/>
      <stop offset="100%" stop-color="#0B1C48" stop-opacity="0.05"/>
    </linearGradient>
    <linearGradient id="flowGradient" x1="0" y1="0" x2="1" y2="0">
      <stop offset="0%" stop-color="#0B1C48" stop-opacity="0"/>
      <stop offset="50%" stop-color="#0B1C48" stop-opacity="0.1"/>
      <stop offset="100%" stop-color="#0B1C48" stop-opacity="0"/>
    </linearGradient>
  </defs>

  <!-- Background Flow -->
  <path d="M100 400C200 350 300 450 400 400S600 350 700 400" 
        stroke="url(#flowGradient)" 
        stroke-width="100"
        stroke-linecap="round"/>

  <!-- Connected Network -->
  <g transform="translate(400,400)">
    <!-- Central Node -->
    <circle r="60" fill="url(#nodeGradient)"/>
    
    <!-- Satellite Nodes -->
    <g transform="rotate(0)">
      <circle cx="200" cy="0" r="40" fill="url(#nodeGradient)"/>
      <path d="M70 0L160 0" stroke="#0B1C48" stroke-width="2" stroke-opacity="0.2"/>
    </g>
    
    <g transform="rotate(72)">
      <circle cx="180" cy="0" r="35" fill="url(#nodeGradient)"/>
      <path d="M70 0L140 0" stroke="#0B1C48" stroke-width="2" stroke-opacity="0.2"/>
    </g>
    
    <g transform="rotate(144)">
      <circle cx="160" cy="0" r="30" fill="url(#nodeGradient)"/>
      <path d="M70 0L120 0" stroke="#0B1C48" stroke-width="2" stroke-opacity="0.2"/>
    </g>
    
    <g transform="rotate(216)">
      <circle cx="180" cy="0" r="35" fill="url(#nodeGradient)"/>
      <path d="M70 0L140 0" stroke="#0B1C48" stroke-width="2" stroke-opacity="0.2"/>
    </g>
    
    <g transform="rotate(288)">
      <circle cx="160" cy="0" r="30" fill="url(#nodeGradient)"/>
      <path d="M70 0L120 0" stroke="#0B1C48" stroke-width="2" stroke-opacity="0.2"/>
    </g>
  </g>

  <!-- Floating Elements -->
  <g transform="translate(400,400)">
    <g transform="rotate(30)">
      <rect x="100" y="-20" width="40" height="40" fill="#0B1C48" fill-opacity="0.05"/>
    </g>
    <g transform="rotate(120)">
      <circle cx="150" cy="0" r="20" fill="#0B1C48" fill-opacity="0.05"/>
    </g>
    <g transform="rotate(240)">
      <polygon points="120,0 140,-20 160,0 140,20" fill="#0B1C48" fill-opacity="0.05"/>
    </g>
  </g>
</svg> 